<svg width="256" height="256" viewBox="0 0 256 256" fill="none" xmlns="http://www.w3.org/2000/svg">
<rect width="256" height="256" fill="#233248"/>
<path d="M55.192 164V103.472H33.144V90.16H93.256V103.472H71.104V164H55.192ZM118.465 164V103.472H96.4174V90.16H156.529V103.472H134.377V164H118.465ZM190.287 165.664C183.909 165.664 178.431 164.589 173.855 162.44C169.279 160.291 165.709 157.275 163.143 153.392C160.578 149.509 159.122 144.933 158.775 139.664L174.687 138.936C175.103 141.848 175.935 144.344 177.183 146.424C178.501 148.435 180.234 149.96 182.383 151C184.602 152.04 187.306 152.56 190.495 152.56C193.13 152.56 195.349 152.248 197.151 151.624C199.023 151 200.445 150.064 201.415 148.816C202.386 147.499 202.871 145.904 202.871 144.032C202.871 142.299 202.455 140.808 201.623 139.56C200.791 138.243 199.197 137.064 196.839 136.024C194.482 134.915 191.015 133.84 186.439 132.8C180.13 131.344 175.034 129.715 171.151 127.912C167.338 126.109 164.565 123.856 162.831 121.152C161.098 118.379 160.231 114.912 160.231 110.752C160.231 106.315 161.306 102.432 163.455 99.104C165.674 95.776 168.863 93.176 173.023 91.304C177.183 89.432 182.141 88.496 187.895 88.496C193.997 88.496 199.162 89.5707 203.391 91.72C207.621 93.8693 210.914 96.816 213.271 100.56C215.698 104.304 217.154 108.603 217.639 113.456L201.831 114.288C201.623 111.723 200.93 109.504 199.751 107.632C198.573 105.691 196.978 104.2 194.967 103.16C192.957 102.12 190.53 101.6 187.687 101.6C184.082 101.6 181.239 102.397 179.159 103.992C177.149 105.587 176.143 107.667 176.143 110.232C176.143 112.035 176.594 113.56 177.495 114.808C178.466 115.987 180.026 117.027 182.175 117.928C184.394 118.829 187.514 119.696 191.535 120.528C198.399 121.915 203.807 123.683 207.759 125.832C211.781 127.912 214.623 130.408 216.287 133.32C217.951 136.232 218.783 139.56 218.783 143.304C218.783 147.88 217.605 151.867 215.247 155.264C212.959 158.592 209.666 161.157 205.367 162.96C201.138 164.763 196.111 165.664 190.287 165.664Z" fill="white"/>
</svg>
